<?xml version="1.0" encoding="UTF-8"?>
<svg id="Layer_1" xmlns="http://www.w3.org/2000/svg" version="1.1" viewBox="0 0 1366 768">
  <!-- Generator: Adobe Illustrator 29.5.0, SVG Export Plug-In . SVG Version: 2.1.0 Build 137)  -->
  <g id="astro">
    <g id="naut">
      <path d="M1029.5,529.1c2.8-.4,4.1,3.6,1.8,5.7-3.8,3.4-6.8-5-1.8-5.7Z"/>
      <path d="M874.3,215.6c-3.1-4.4,4.6-7.6,5.1-2.5s-3.8,4.4-5.1,2.5Z"/>
      <circle cx="1066.6" cy="161.1" r="2.8"/>
      <path d="M984.8,619.9c-2.2,2.2-6.6-2.6-3.4-4.7s5.4,2.7,3.4,4.7Z"/>
      <path d="M976.9,89.4c-.2-.1-1.1-.9-1.1-1,.8-6.5,8.8-2.7,4.3,1.5s-2.2.3-3.2-.5Z"/>
      <path d="M904.8,568.7c1.8,2.3-1,6.2-3.7,3.9s1.6-6.5,3.7-3.9Z"/>
      <circle cx="1137.3" cy="440.5" r="2.6"/>
      <path d="M766.7,423.5c-.4.3-1.9.7-2.4.6-.8-.2-1.9-2-1.7-3,1.3-5.1,7.1.3,4.1,2.4Z"/>
      <circle cx="862" cy="285.3" r="2.3"/>
      <circle cx="818.5" cy="422.4" r="2.3"/>
      <circle cx="782.3" cy="364" r="2.1"/>
      <path d="M1032.8,579.8c1.3-.6,3.5,1.9,1.7,3.4-2.6,2.2-4.9-1.9-1.7-3.4Z"/>
      <path d="M787,481c1.5,1.4.1,5.4-2.8,3.6s.3-3.4.6-3.6,2.2,0,2.3,0Z"/>
      <circle cx="923.9" cy="118.3" r="2"/>
      <circle cx="1028.1" cy="480.8" r="2"/>
      <path d="M1220.6,282c-2.9,2.1-4.3-2.9-1.4-3.6s3.3,2.3,1.4,3.6Z"/>
      <circle cx="1142.5" cy="353.8" r="2"/>
      <path d="M824.7,530.1c2.3-1.3,4.8,2.4,1.4,3.5-2.6.8-2.6-2.8-1.4-3.5Z"/>
      <g>
        <path d="M1130.9,179.9c8.9,7.4,12.2,29.3,10.3,40.3-1.5,8.9-3.4,11.9-10.6,16.9-5.7,3.9-12.4,6.8-18.1,9.4s-3.2,2.7-6.2,4.8c-5.4,3.7-17.9,7.7-21.8,12.5-3.3,4.2-7.5,19.7-8.5,25.6s-.9,6-.7,6.9,2.5,1.4,3.1,1.9c.9.6.6,2.1,2.2,1.2,2-3.6,3.8-7.3,6-10.8,16.6-26.6,31.5-35.3,58.5-50.1s6-4.2,10.3-5.5,2.2.2,2.8-.2,3-4.1,4.3-4.5,3.2-.1,3.7-.4c1.7-1,4.4-20.9,5.3-24.3s4.6-12.9,8.9-15.1,9.1-.5,13.5,3.9c9.5,9.4,19.3,31,14.2,44.1-4.8,12.4-18.9,19.1-28.6,26.7-2.3,1.8-3.5,5.5-7,8.1-9.2,6.9-20.7,12.5-28.9,20.5-4.6,4.5-7.4,10-10.2,15.8,1.5.6,3.3-1,4.7-1.5,24-9,51.6-4.1,55.2,25.8,1.9,15.4-7.5,32.1-19.2,41.4-11.2,8.9-26.8,13.5-36.6,23.8s-5,6.2-7.8,8.9c-5.5,2-10.6-1.2-8.8-7.4,1.9-6.7,10.5-14.6,16.2-18.5,15.6-10.6,41.4-18.7,43-41.2s-2-14.2-7.4-18.2c-14.2-10.8-26.3-.8-40.7,2.4s-4.6.5-6.4.1c-.9,2.9-2.4,6.2-3.8,9-6.5,12.8-13.9,24.9-26.6,32-1.4.8-2.1.7-2.7,1s-5.7,9-8.6,11-2.5.8-2.9,1.1-1.1,2.6-1.7,3.4c-3.3,4.6-7.7,7-11.8,10.6s-6,7.2-10.3,9c-.1.8.6.5,1.2.5,14.9.7,35.6.3,43.2,16,5.6,11.6,3.5,34.7,1.6,47.3s-1.2,3.7-1.2,4.2c0,1.3,2.1,5.5,2.6,7.4,1.6,6.5,1.8,24.5-.9,30.4-1.3,2.8-3.3,5.5-6.8,5-.4,0-.9-.7-1-.7-.2,0-1.1,2.9-1.9,3.7s-3,2.1-3.7,2.3c-1.9.4-3.6-1.3-4.5-1.2s-2.6,4.2-5.9,3-3.7-2.7-4-5.4c-3.4,5-9.3,3.1-10.4-2.6s3.7-16.3,2.6-22.3c-.2-1.4-.4-2.4-1.8-1.4-2.6,2.1-5,4.8-8.5,5.4s-7.4-2.4-6.2-6.9c1.3-4.5,8-11.1,11.7-14.2s3.8-2.3,3.9-2.5c.4-.5-1.2-4.1-1.4-5-.6-3.6,0-18.4-2.6-20.3-1-.8-6.2.1-7.7.4-16.9,2.8-27.3,7.6-43.8-.1-1.3-.6-2.6-1.2-4.3-2s-6.5-3.3-6.8-3.2c-2.3.5.2,1.7.4,1.9,4.3,4.1,5.7,8.3,3.3,14s-3.2,4.6-3,4.8,1.3.4,1.7,1.1c12.5,19.2,1.9,43.8-14.7,56.4-11.6,8.8-28.8,12.6-35.4,26.7-2.9,6.2-2.4,11.8-.7,18.3-3.2.1-3.1-4.8-4.1-6.7,0,1.8-4.4-.2-5.1.5-.8,1.8.8,2.4.9,2.8.3,1.1,0,2.6,1,3.7-2.1,2.2-2.7-1.2-3.4-2.7-6.8-14.1,1.3-27.6,12.5-36.5,12.5-9.9,25.9-12,35.4-26.5,6.9-10.5,6.5-18.8,1.5-30.3-2.2,2.9-3.4,6.3-5.6,9.3-2.3,3.2-6.3,6.4-10.4,7.1s-2.9-.2-4.5.3-4,3.3-5.5,4.4c-14.9,9.8-36.3,10.9-52.8,4.2-30.4-12.4-47.1-47.2-32.8-78.5s32.2-35.9,54.9-35.3c-3.1-8.4.2-16.7.5-25.2.2-7.3-.4-15.8-1.2-23.1-.5-4.3-2-8.7-1.3-13-3-1.9-5.8-3.9-8.4-6.3-3.4-3.1-11.8-12.4-10.1-17.1,1.8-4.8,6.6-3.5,10.1-1.3.5.3,3.7,4.5,4.2,3.8s-1.6-4.2-1.9-5.1c-.9-3.2-2.5-9-2.7-12.1-.2-5.1,2.7-11.6,8.2-6.7.7.6,1.4,3,2.3,2.7.8-3.8,1.1-8,6.1-7.1s2.7,2.6,3.7,4.7l1.5-3c3.5-4.1,8.5-1.7,8.6,3.5,2.2-2.3,4.5-5.2,7.8-2.4s2,12.5,2.5,17,2.8,10.3,2.7,16.5c0,.7-.5,1.5-.5,1.9s2,1.5,2.4,2.1c2.3,4.1,4.4,16.9,5.2,22.1s1.3,10,1.8,15c5.9-3.5,9.8-9.8,15-13.9s6.5-3.7,9.4-6.1c5.2-4.3,5.8-7.5,12.6-11.8,9.9-6.3,13.6-33.7,17.2-44.9,4.2-13,10.8-30,22.6-37.7s22.9-9.9,33.9-12.7,5.8-2,8.3-1.5,2.5,1.3,2.6,1.2,0-.6.2-.8c1.5-1.2,3.6-2.4,5.5-2.9s2.4.1,2.9-.2c1.8-1.1,4.9-21.5,6.9-25.6s9.7-12,16.2-8.2.9,1,1.3,1.3ZM1130.5,184.7c-2.5-3.4-5.4-6.8-9.4-2.7,1.6-.2,3.9,2,4.8,3.3,6.8,9.1,9.5,25.2,8.2,36.4s-1.6,6.9-2.3,10.2,2.4-.6,2.7-.9c1.2-1.4,3-6.9,3.4-8.9,2.1-12.4,0-27.2-7.3-37.4ZM1129.4,201.7c-.9-3.3-1.4-6.1-3-9.3s-5.8-9.8-7.7-8.4c-.3,1.9-1.9,3.1-2.7,4.8-3.5,7.5-2.2,17.7-7,24.8,1.8.6,7.5,7.3,6.2,8.9s-5.7-4.7-7-5.7c-3.3-2.4-5.3-2.2-8.3.6l4.1,3.8c3.8,6.3,9,15,6,22.4.8.6,10.2-3.6,11.7-4.4s6-4.1,6.5-5.1c1.5-3.1,2.8-12.6,3-16.2.3-6-.4-11.1-1.8-16.3ZM1187.9,190.9c-.1,0-2.6-.9-2.8-.9-1.2,0-2.9.4-3.3,1.7,4,1.7,7.9,6.1,10.3,9.7,6.3,9.3,10.4,22.2,9.9,33.4s-1.1,5-.7,7.5c3.6-3.1,5.4-10,5.5-14.7.2-9.4-6.4-22.9-12.4-30.1-1.1-1.3-5.3-5.7-6.4-6.5ZM1183.5,195.7c-.4-.3-3.6-2.1-3.9-2-2.5.6-5.7,13.2-6.3,15.8-1.3,6.4-1.1,13.3-4.1,19.3,1,.3,2.5.7,3.3,1.3s3.9,3.2,4.7,4,2.5,3.5,2.6,3.7c.1.5-.5,1.9-.5,2.5-1.8,1.3-4.8-4.6-5.9-5.6s-3.6-2.4-5-2.9-1.9-1.5-4.2-1.1-2.2,2.1-3.6,2.4c-.3.6,5.5,3.5,6.1,4,3.7,3,9.2,12.5,10.5,17.2.5,1.9,1,4.4.7,6.3,1.3.4,1.7-1,2.3-1.4,4.5-2.9,11.8-7.5,15.4-11.3,4.4-4.8,3.4-20.8,1.9-26.9s-8.7-20.8-14-25.3ZM1085.5,256.9c.2-2.4,0-5,0-7.5s1.3-.4,1.5-.3c2.3,1.1,1.2,6.2.7,8s.5,1.1.7,1-.1-.6.6-1.1c1.4-.9,6.1-2.8,6.9-3.7s.3-6.6,1.7-7.5c3-1.8,1.3,4.5,1.5,5.6.7.7,7.4-3.7,8.1-5.2,1.5-3.5.3-10.7-1-14.2s-5.8-11.8-10.1-13.5-12.4,2.8-17.2,3c-.4,1.4.1.6.5.8,2.9,1.6,5.4,2.7,7.7,5.2s2.1,3.2,2.9,5.2.9.4,1,.7c0,1.4-1.2,2.3-2.5,1.4s-1.2-2.5-1.6-2.9c-2.8-3.4-8.3-7.9-12.8-8.2s-2.2.3-3.4.3l6.9,4.4c2.3,2.6,4.8,4.3,6.4,7.5s1.6,2.7.4,3c-1.1.3-1.1-.4-1.6-.8-2-1.6-3.2-4-5.1-5.8s-8.5-6-10.8-6.2-10.5,5.5-13.5,6.5c-.8.8-.3.6.5.8,2.7.6,5.4,1.3,7.9,2.6s6.4,4.6,7.7,6.2c5.8,7.4.6,15-8.3,11.3-2.2-.9-4.7-3.1-6.9-4.2s-10.3-4-12.4-2.8.4.5.2.9c-2.8,5.8-5.3,11.6-7.3,17.6-4.1,12.2-5.9,25.1-10.6,37,.1.8,4.3.3,5.4.4,9.8.9,15.5,4.9,23.3,8s1,.9,1.5,1c1.1.2,4.5-4.2,5.7-4.2s1,1.2.4,1.8l-4,4c12.2,7.8,24,18.9,31.2,31.6s3.7,8.5,4.9,13.4.8,4.1,1.2,4.1c4.7-2.4,9.7-6.8,13.2-11,11.2-13,16.4-30.1,24-45.2,5.9-11.7,10.9-17.5,21.4-25,.5-.3,3.4-1.5,3.7-1.9,2.8-3.8-.7-16.7-3-20.6s-7-8.1-10.1-10.1-4.7-2.5-5-2.6-3.5,2-3.8,2.2-.5.8-.3,1,2.9,1.1,3.7,1.6c2,1.4,7.3,6.7,8.4,8.7s1.5,3.2-.7,3-3.5-3.8-4.6-4.9c-2.1-2-8-6.9-10.8-6.8s-10,7.4-12.3,8c6.6,4.3,18.4,12.7,15.2,22.2s-8.4,4.3-12.9.9-6-5.7-9.6-7.9-6.1-3.4-7.6-2.6c-7.9,10-14.5,21.2-20.9,32.4-1,3.1,1.2,10.4,2.6,13.4s5.6,8.3,5.6,8.8-1.5,1.2-1.6,1.2c-.3,0-3.8-4.3-4.2-4.9-3.4-5-5.8-11.4-5.6-17.4s1.2-2-1.3-4c-4.7-3.7-12-4.3-17.8-3.9s-7,1.7-9.1,1.5-1.5-2.2.1-2.8c3.9-1.3,11.3-2.2,15.5-1.8s4.5.7,6.8,1.2c.1-3,.7-6.1,1.3-9,1.4-6.2,4.3-19.5,8.3-23.9s3.1-1.3,3.4-4.8ZM1062.7,240.5c-3.9-2.8-7.9-4-12.6-4.9-.5.9-6.9,7.3-6,8.1,2.6.1,5.9.6,8.3,1.6,3.5,1.4,12.7,9.5,16,5.2s.7-2.4.6-2.6-.7-.3-.8-.6c-1.4-3.4-2.3-4.4-5.5-6.7ZM1164.2,239.5c-2-1.6-5.4-3.9-8-3.3s-7,3.3-10,5-3.3,1.7-4.9,2.5c-.4.6,4.7,3.3,5.4,3.9,8.4,6.4,14.9,17.5,12.9,28.4l11.3-7.4,4.3-4.6c-.2-3.5-.5-7.2-1.6-10.5s-6.3-11.4-9.5-13.9ZM1121.7,266.1c-.3-.2-.5-.9-.9-1.2-1.6-1.2-5.6-3.8-7.5-3.4l-7.6,7.2c3.2.9,6.8,3.1,9.6,5.1s6.9,7,9.2,8.1c5.1,2.6,6.4-2.6,5.1-6.6-1.5-4.5-4.5-6.6-7.9-9.2ZM944.1,287.3c-.9-1-1-9.4-1.4-11.5s-1.1-7.4-3.8-7.2c-3.7,6-1.8,13.2-1.7,19.8-.4-.3-1.3-.1-1.4-.3-1.5-1.2-1.9-8.5-2.6-10.8s-2.9-5.6-5.5-5.3c-2,6.1.7,11.9,2.3,17.7s1.1,6.8,1.8,6.8c3.4-2.7,15.7.6,17.3,3.9,2.3,4.7-4.3,0-5.3-.4-5.2-2.4-13.6-.9-15.5-1.8s-4-4-5.3-5c-4.5-3.1-6.9-1.4-4.5,3.7s11.2,14.2,16,16.2c7.2,3,19.2.2,25.4-3.8,8.4-5.4,3-14.2,2.2-21.8s1.6-15.1-2.2-16.7c-2.3-1-4.3,7.8-4.5,9.3s.8,6.5-1.5,6.2-1.1-1-1.2-1.6c-.5-3,.5-14.3-1.9-15.9s-4,4.9-4.3,6.4c-.6,3.1,0,10.3-.6,11.8s-1.1.9-1.7.2ZM1157.2,313c1.3-.9,6.3.4,7-.5,1-1.4,1.9-6.5.3-7.5s-7.3-.8-8.1-.6c-2.4.4.7,2.7.8,3.2.3,1.5-.2,3.8,0,5.4ZM1051.8,313.5c-7.5-3.8-21.7-11-29.9-7.2-.3.1-3.6,3.8-3.7,4.1-.5,1.1.6.5.9.5,8.5.9,14,3,21.6,6.8s4.1,2.8,4.8,2.9c1.1.1,3.2-3.4,4-4.4s2.9-2.2,2.4-2.8ZM1154.7,312.9c-.2-1.5-.7-6.7-1.8-7.4s-6.8,1.5-8.7,1.7c2.4,2.2,2.3,5.2,3.6,7.7l6.9-2ZM1174.4,314.3c5.5-5.5-2-7.9-6.6-8.5.6,2.8,0,5.7-1.4,8.2,3.4.3,5,3.3,8,.3ZM966.6,307.2c-.7-.6-2.1,1.9-2.6,2.4-4.9,4.6-16.3,8.5-22.9,7.9s-3.7-.8-5.3-1.2c-.7,2.9.6,5.7.5,8.6,7.6,2.5,15.7,2.2,23.2-1s.4-.7.8-.9c3.5-1.7,7.1-3.3,8.8-7.1l-2.4-8.9ZM1144.6,316.3c1.2-1-1.7-7.4-2.9-7.9s-5.4,1-5.8,1.5c-1.1,1.4,3,5.8,1.5,8.3.2.2,3.9-.8,4.4-1s.3-.8.7-.9c.6-.1,1.8.2,2,0ZM1180.1,311.2c-2-1.5-1.5,1.4-2.5,3.2s-2.2,3-3.6,2.9c1.4,1.9,3.9,3.1,4.9,5.3,1.9-.4,6.7-2.2,6.7-4.5s-4.7-6.2-5.5-6.8ZM1135,319.2c.7-1.1-1.2-7.3-2.7-7.5s-1.3,1.1-1.5,1.7c-1.2,2.5-2.4,4.9-3.5,7.4.4.3,7.4-1.2,7.6-1.5ZM1037.2,319.4c-4.5-2.5-14.6-6.1-19.7-5.7-7.4.6-11,9.6-16.5,13.7s-6,3.3-8.5,5.3-4.3,5.1-6.5,7.2c-10.1,9.6-24.6,16.3-32.3,27.2s-6.1,9.8-5.4,10.8c7.8-4.9,17.7-4,25.8,0s7.6,5.4,8.8,4.7l7.8-8.3c0-1.2-10.6-6.5-11.4-10.7s1.2-8,3.8-11.4c4.8-6.1,11.4-11.7,17.3-16.7s4.9-5.4,9.1-5,11.7,5.5,14.6,7.5.7,2.4,2.6.3c4.5-5.1,8.8-9.2,14-13.8s2.6-.8,1.8-1.9-3.8-1.9-4.7-2.5-.4-.6-.5-.7ZM1057.9,317.5c-1-.6-2.7-1.8-3.8-1.6s-5,5.3-5.3,5.9c-.8,2,2,2.4,3.2,3.3,12.7,9.6,27.3,24.7,30.1,41.1.4,2.5,0,4.9.3,7.4,2.4-2,6.5-6.1,7.3-9s-1.4-10.8-2.3-13.2c-3.9-10.6-19.8-27.7-29.5-33.9ZM967.8,349.8c2.2-1.6,5-2.2,5.3-5.4s-.7-11.1-1.2-14.2-.7-1.6-.9-2.5c-.5-2.6-.9-5.3-1-7.9-8.9,8.6-21.2,12-33.2,8.2.6,2,.8,13,1.8,13.5,6.8,2.4,12.8,3.5,20,2.2s7.2-2.3,8.1-2.1c4.2,1-3.9,4-4.9,4.3-7.7,2.3-16.2,1.4-23.5-2.1v12.5s11.1,2,11.1,2c-1.9,3.7-8.2,1.9-11.5,1-.4,3.8-1.3,7.9-1,11.8,0,.8,1.2,5.8,1.5,6s1-.5,1.6-.5,4.9,1.4,5.5.9c.6-1.3.7-3,1.3-4.3,3.8-8.8,13.3-17.5,21.1-23.4ZM1187.5,320.7c-.8-.8-1.2,1.1-1.6,1.5-1.8,1.6-3.5,1.6-5.1,3.2,2.2,3.8.9,8.2,6.9,6.8s2.5-2,2.2-4-1.3-3.6-1.9-5-.4-2.4-.5-2.5ZM1051.5,329.2c-.3-.2-.5-.8-1-1.2-1.7-1.2-3.8-1.8-5.3-3.4h-.7c0,.4,0,.7-.4.9-5.9,4.6-11.6,9.3-16.4,15.2,3.9,3.5,8.1,6.6,12,10.1s3.4,2.3,4.3,3.5c1.9,2.6,3.8,9.8,3.4,12.9s-8.7,10.3-11.8,13.2c-3.6,3.4-7.3,7.2-11.4,10.3-5,3.8-6.1,5.1-11.9,1s-9.4-8.4-14-11.9-5.2-4-5.5-4.1-.5,0-.7,0c-1.7,3.2-5.3,6.5-8.2,8.7,11.3,8.9,21.4,24.2,21.9,39,.2,4.5-1.2,8.5-2.7,12.7l6.5,3.7c-.5-5-.5-9.5,1.2-14.2,3.6-10.4,12.2-16.7,22-20.3s14.3-3.4,21.8-4.7c1.9-1.5,1.6-12.5,2.4-13.2s1.3,0,1.6,0c1.7.6,0,6.9,0,8.5s-.5,1.2.4,1.1c3.3-4.6,7.9-8,12.1-11.8s1.3-.5,1.8-.9c18.5-16.7-6.9-44.4-21.3-54.9ZM1016.6,336.7c-.2-.1-.8.2-1.2,0-2.5-1.4-5.6-4.4-8.7-3.1-1.4,1-2.6,2.4-3.8,3.5-4.4,3.7-9.1,7.6-13.1,11.9-.5.5-5.1,5.6-4.8,5.9,9.5,5.2,18.1,11.9,26.6,18.8,1.5,1.2,4.3,5.1,6.4,4.8l24.3-21.9c-7.7-7-15.9-13.1-24.7-18.6-.5-.3-.7-1.1-.9-1.2ZM1183.2,334.6c1.4,4.1-2.8,8.8,4.1,9.2s2.8,0,3.1-1.7.5-7.6.3-7.9c-1.2-1.5-1.5.3-2.4.5-1.5.5-3.6.3-5.1,0ZM1189,346.2c-2.3.8-4.6.3-6.7-1-.3,2.8-3.8,5.5-1.7,8.2s4.1,2.4,4.9,1.9,4-7.8,3.4-9.1ZM1183.7,357.7c-2.4-.2-4.2-1.8-6.2-2.9-1,2.3-4.1,3.9-3.9,6.5s2.6,4.1,5,3.6,5.6-6.6,5.2-7.2ZM1016.7,390v-7c0-1.2-5.4-6-6.6-7-6.2-5.3-15.6-12.5-22.4-17-2.8-1.8-6-4.1-5.9,1.4,0,4.6,3.9,6.3,7,8.7,5,3.8,11.4,8.3,17,12.7s9.8,9.5,11,8.2ZM1043.6,359.2l-3.9,2.9c-5.9,4.6-10.7,11.2-16.4,16.1s-3.9,2.5-4.1,2.7c-.6,1,1,8.3-.6,10,.4.3,1.6-.7,2-1,5.9-4.3,18.5-15.1,22.5-20.8s1-.5,1.1-.8c1.6-2.8-.2-6.2-.6-9.1ZM1171.3,363.8c-.4-.8.2-1.9-.6-1.8-.2,1.4-5.4,4.1-5.7,5.2-.5,1.8,2,6,4,6.4.5-1.3,2.4-1.8,3.4-2.6s2.1-2.8,3.6-3.2c-.6-1.1-2.6-1.6-3.5-2.4s-1.1-1.5-1.1-1.6ZM1163,368.3l-7,4.3c-.6,1.6,1.5,6.5,3,6.7s2.4-1.5,3-1.8,3.8-1.2,3.9-2.2-4.2-5-2.9-7ZM1149.7,384.4c1.2-.8,5.7-2.3,6.1-3.4l-2.6-6.9c-6.6,2.6-9.4,4.9-3.8,11.1.4,0,0-.6.4-.8ZM983.1,387.9c-.3-.2-.5-.8-.9-1.2-7.8-6.1-19.8-12.1-29.5-7.5,2.4,1.8,6,2.3,8.8,3.7,5,2.4,12.8,7.9,16.7,11.9,10.8,11.1,17.5,26.8,15.9,42.4,7.6,2.3,8.9-10.3,8.3-15.3-1.7-13.8-8.8-25.5-19.2-33.9ZM1138.5,389.4c2.7,2.5,5.8-1.7,8.1-3-1.5-1.3-2.2-3.1-2.7-4.9s.7-1.9-.4-2.6c-1.9,1.8-4.4,3.8-6.9,4.9-.4.6,1.4,5.1,2,5.6ZM967.2,390.4c-47.7-34.6-111.7,21-81.9,73,12.9,22.6,42.1,34.1,67.5,26.1,5.6-1.8,10.8-4.9,15.3-8.7-4.9-3-3.7-10-1.5-14.5,2.7-5.3,11-15.1,17.4-15.4s3.1,1.1,4.8.8c1.4-5.4,2.7-10.4,2.8-16.1.3-20-9.6-34.5-24.4-45.2ZM1135.7,389.8c-1-1.3-1-2.4-1.9-3.6-.7,1.5-4.7,3.9-5,5.1-.4,2.2,3.3,5.9,5.4,6s.4-1.3.9-1.8c.7-.8,2.6-1.6,3.2-2.8.2-.7-2.1-2.1-2.7-2.8ZM1127.3,393.8c-2.1.5-3.9,4.9-3.9,7s3.2,4.2,5.3,2.8c1.5-1,2.2-3.7,3.9-4-.7-1.3-2.6-1-3.7-2.1s-1.5-2.7-1.6-3.7ZM1066,434.5c4.8-6.6,7.2-12.7,8.5-20.7.2-1.1.9-8.3.7-8.7-.4-.8-1-.7-1.7-.9-1.9-.5-7.2-.6-9.5-.7-19.5-.4-46.2,4-51.5,26.4s1.2,12.5,9.7,14c7.1,1.3,13.8,0,20.8-.6,3.3-5.4,4.7-10.1,4.4-16.5s-.9-4.5-1-6.7-.4-2.4.7-2.2c3,.5,3.3,11.3,3.1,13.7-.3,3.8-2.1,7.3-3.4,10.8,4.7-1.5,9.7-2,14.6-2.9.3,0,4.1-4.4,4.5-5ZM1093.5,410.8c-3.2-2.4-10.7-5.1-14.7-5.8s-.7,0-.9.6c-.4,10.2-2.4,20.3-8.3,28.7s-2.3,2.4-3.3,3.6-.1,1.7-1.4,1.6l3.9,1.3c1.8,0,5.1-2.2,6.5-3.4,2.2-1.8,4-5.1,6.1-6.7s.5-1.1,1.8-.8c-.8,3.9-5,9.4-8.5,11.5s-4.7,1.6-6.9,2.7c1.5,5.8-1.4,9.8,4.9,12.8s10.3,2.1,14.9,1.7,13.1-2.5,14.1-4.6c1.2-12.7,3.3-34.6-8.1-43.1ZM999.6,441.7c-2-1.4-3.3-1.1-5.6-1.6-.1,2.7-.7,5.4-1.4,8s-2.4,5.5-2.5,6.2c-.1,1,.7,1.7.8,2.5.2,1.2.2,5.1,1.4,5.4,7.8-2.2,15.4-14.4,7.2-20.5ZM988,456.2c-1.4-2.2-2.1-2.6-5-2-7,1.4-15.7,13.5-15.3,20.7,0,1,1.3,3.2,2.1,3.7s.7-.8.7-1.2c.4-6.3,1.6-8.9,5.8-13.8,2.9-3.5,7.8-7.2,12.5-5.7.4-1.4-.5-1.2-.8-1.6ZM1101.4,457.4c-10.4,4.8-21.6,6.2-32.2,1.4-.3,2.7,0,7.4,2.3,9.1,5.1,3.9,14.7,4.7,20.8,3.2,8.7-2.1,8.6-5.8,9.1-13.7ZM989.2,460.8c-3.4-2-6.7.3-9.1,2.8-3.8,4-8.2,9.7-7.3,15.5,9.1-.5,14.7-10.3,16.4-18.3ZM1001.1,461.4c-1.6-1.6-1.7,0-2.4.5-1.4.9-3,2-4.7,2.3-.6,6.2,7.5,1.9,8.2-1.2s-.6-.2-.8-.4c-.2-.4-.2-1-.3-1.1ZM1005,474.6c.8-.7-1-8-2.1-8.5-.1,2.6-6,3.8-6.5,4.4s.9,4.7,1.4,5c1.3.8,6.1,0,7.1-.8ZM1070.4,470.5c-.4-.3-1.1-.8-1.7-.6-4.4,4.9-10.9,8.9-13.5,15.2s-.2,4.6,3,4.3c8.1-5.7,13.7-13.3,12.8,3.3s-3.7,16.6-1.3,19.4,2.3.8,2.9.6c1.4-.3,3.5-6.2,4-7.7s1.4-8.6,2-9.6,1.6-1.4,2.1-.9c1.7,1.5-4.1,18.4-.6,20.7s5.8-6,6.3-8.1,1.1-12.2,1.6-12.5,1.2-.2,1.6,0c1.4.2-.1,16.6-2.2,18.3,2.1.5,1.9,1.2,4,0,3.1-1.8,4.2-11.7,4.4-15.3s-.5-3.8-.2-5.6,1.9-1.7,2.4-.9c.9,1.6.7,9.3.4,11.4s-2.4,5.5-.1,6,3.3-3.8,3.7-5.2c1.5-4.8,1.5-18.8.6-23.8s-1.8-7.1-2.5-8-.5-.6-1.2-.3c-1.6.7-2.6,1.9-4.7,2.5-7.2,2.1-17.9,1.4-23.8-3.1ZM997.9,478.1c-.4,3.4,0,5.7,3.6,6.5s3.9,0,4.3-.7-.3-6.1-.3-7.2c-2.3,2.1-4.9,1.9-7.7,1.4ZM1005.1,486.7c-2.7,1.1-5.2,0-7.7-1l-1.9,6.2c1.4.8,6.4,3.5,7.7,2.4s1.8-6.6,2-7.7ZM1001.7,496.8c-3,0-5.6-.9-7.7-2.9-.2,1.6-2.5,3.4-2.3,4.9.2,2.6,3.8,4.9,6.3,4.2s3.4-5.3,3.7-6.3ZM994.2,507.1c.4-.4,1.5-.5,1.3-1.4-2.5-1.7-4.7-1.9-6-5.1-1.8,2.9-5.2,3.3-3.6,7.3s3,3,3.3,3c1.6.4,4.1-2.8,5-3.9ZM983.4,507.4c-.5-.4-4.8,3.3-4.8,4.1-.1,1.4,2.6,5.4,4.1,6s.2-.6.6-.9c1.1-.9,4.2-2.5,4.5-3.6-2.4-1.2-4-2.8-4.3-5.5ZM976.3,514c-.2-.5.8-1.2-.3-1.8-2.9,2.8-6.9,1.8-4.2,7.1s2.2,2.4,2.4,2.5c1.2.2,4.6-2.6,6-2.8-1.2-1.6-2-2.6-2.9-4.4s-.7-.4-.8-.5ZM970.6,522.2c-1.5-1.7-1.3-3.3-2.3-5.1-3.5,2.8-7.4,1.4-4.7,6.6s4,.7,8.3-.3c.3-.4-1-.8-1.3-1.1ZM963.7,528.1c-2.1-1.9-2.7-4-4.1-6.2-5.9,3.6-7.2,6.4,0,9.6.9-1.3,2.6-2.6,4.1-3.4ZM953.3,530.3c-.5-.5-1.1-2-1.9-1.7-.8,1.5-4.3,3.7-3.4,5.3s2.9,2.6,3.1,2.7c3.6,1.2,4.1-1.2,6.3-3.4-1.8-.7-2.8-1.5-4.1-2.8ZM947.2,536.5c-.7-.5-.8-.8-1.5-.2s-2.4,4.7-2.2,5.4,4.6,3.1,6,2.7,3-5.3,2.7-5.7c-2.3.9-3.6-1.3-5-2.2ZM942.5,544c-.3,5.1-1.1,9.7,5.8,8.5.4-.3.9-4.9.8-5.1-.4-.6-5.7-1.3-6.5-3.3Z"/>
        <g>
          <path d="M837.3,353.3c-1.6-1.6-.3-5.6,3-5.2,5.3.7.9,9.2-3,5.2Z"/>
          <path d="M819.3,300.1c.9,1.6-2.4,4.4-3.7,2.2s2.7-4,3.7-2.2Z"/>
          <path d="M866.4,390.8c-2.4,1.3-3.7-3.1-1-3.7s2.5,2.9,1,3.7Z"/>
          <g>
            <path d="M838.5,473.9c0,0,1.1,1.2,1.1,1.5.5,5.7-6.2,4.7-5.6,1s2.2-3.2,4.5-2.5Z"/>
            <path d="M977.6,567.2c1.8,2.9-4.2,6.3-4.7,1.6s4-2.7,4.7-1.6Z"/>
            <circle cx="889.2" cy="520.6" r="1.9"/>
            <path d="M953.9,389.2c4.2,2.1,10.2,6.7,13.6,10.3,39,40.5-20.1,97.5-66.5,62-43.1-33.1,5.1-96.4,52.8-72.3ZM939.9,404.1c-3-2.3-7.4-4.7-11.3-4.8s-4.1.8-2.7,2.7,4.5.7,5.6,1.1c4.9,1.5,10.9,8.3,13.7,13s.8,5.5,3.5,3.4.4-.9.3-1.7c-.8-4.7-5.4-10.9-9.1-13.7ZM919.8,413.2c-2.6-3-10.1,5.2-7.6,7.3s9.7-5,7.6-7.3ZM909.8,429.5c-3.2-1.4-7.4-4.2-11-3.1-1.7.5-1.9,2.2-.6,2.8s8.8,2.1,9.5,2.2,2.6-1.3,2.1-1.9ZM970.3,446.6c2.8-4.9,4.7-11.5,4.8-17.2-1.6.9-1.1,2.5-1.6,3.7-13.1,33.1-54.4,42.8-78.4,14.9l-5-8c10.5,30.2,49.9,37.1,72.4,15.9,2.4-2.2,6.2-6.6,7.8-9.3ZM936,438.8c7.5-3.8,2.5-10.5-2.7-5.5s-2.2,3-2.3,3.2c-1.3,3.2,1.6,3.5,4.1,3.2.8-.1.7-.7.9-.8ZM923.1,440.7c-1.4-1.1-3.3.1-3.3.6,0,1.2,1.6,2,2.1,2.7.6,1.2,1.7,3.8,2.2,5.1s.3,3.9,1.7,3.9,1.6-1,1.7-1.2c.7-2.6-2.4-9.4-4.5-11.1Z"/>
          </g>
          <path d="M1017.9,355.5c.2.2.4.8.7,1,1.1.7,7,4.6,7.2,5.4.5,2.1-4.5,6.3-6.4,5.8-3.5-.9-9.4-7.5-12.9-9.3-.3-2.1,4.7-4.2,5.6-6,.9,0,4.8,2.4,5.8,3.1ZM1017.3,358.5c-.3-.2-.4-.8-.7-1-.7-.5-3.4-2.6-3.6-2.7s-2.4,1.5-2.6,1.8c-1.3,2,2,2.7,3,3.5,1.4,1.1,3.5,3.3,5,4.3,2.9,1.9,2.6.2,5-1.6-1.9-1.6-4.1-2.8-6.1-4.3Z"/>
        </g>
        <g>
          <path d="M668.2,196c16.6,12.8,25.5,31.6,15.4,52s-1.3.9-1.4,1.2c-.6,1-.2.9-1.3,2.3-13.2,16.8-39.4,21.1-59.4,15.5s-31.6-13.6-27.3-29.1,35.8-20.2,50.7-13.1,4.9,3.5,7.7,4.5c-5.4-5.9-14.7-9.4-22.6-10.8s-23.2-.1-32.6,5c-25.3,13.9-13.7,36.6,7.2,47.2,30.4,15.4,84.6,4.8,91.2-33.5,1.5-8.8-1.3-17.4-4.9-25.3s-2.9-3.4-2-5.7c2.8,2.4,5.3,7.2,6.7,10.6,9,22-2.6,43.5-22,54.4s-58.5,12.5-80.7-4.6c-14.7-11.3-19.1-28.8-3.3-41.4s56.5-14.2,71,8.4l1.7,6.3c.5-2.6,1-4.6.2-7.2-3-10.4-17.2-19-27.2-21.9-19.3-5.6-47.4-1-59.9,15.7-20.3,27.2,12.4,54.5,36.5,61.8,17,5.1,30.4,4,47.5,1.6s3.1-1.5,2.8.3c-.7,3.6-21.6,4.6-25.7,4.6-20-.2-40-6.4-54.9-19.9-42-38.3,8.2-78.5,52.5-67.6,15.3,3.8,42.1,20.2,28.2,38.6-11.4,15.1-41.7,11.6-54.2-.3s-1.9-2.8-3.1-3.7c1.1,5.1,7.7,9.4,12.2,11.6,14.6,7.2,39.3,6.9,49.6-7.3,12.4-17.2-2.7-34.3-18.1-42-23.7-12-59.7-11.8-79.3,7.2-1.8,1.7-2.5,3.2-4,4.9s-1.5,1.8-2.5,1.6c-1.8-.7,2-6.1,2.8-7.1,21.2-26.9,84.5-21.5,103.3,6,20.4,29.8-17,50.5-44.5,43-14.7-4-34.3-17.6-16.6-32,0-.4-.5-.3-.7-.2-4,1.2-8.3,5.6-9.8,9.5-5.6,15,16.6,25.4,28,28.1,26.5,6.2,67.2-8.5,58.1-41.8-6.1-22.6-30.7-35.1-52.1-39.3s-8.7-.6-12.1-2.4c0-1.7,8.2-1.1,9.9-1,14.2,1.4,27.8,6.9,38.9,15.5Z"/>
          <path d="M1032.9,114.3c1.5,1.7-1.1,4.6-3.1,3.1-1.5-2.1,1.2-5.3,3.1-3.1Z"/>
          <path d="M1006,281.3c1.1,1.3.2,4.3-2,3.7s-1.6-1.4-1.7-1.5c-.4-1,2-4.1,3.7-2.2Z"/>
          <path d="M901,336.2c2.2,2.2-4.2,5.7-3.6,1.2s2.8-2.1,3.6-1.2Z"/>
          <path d="M901.3,258.9c-1.4-1.7.8-4.7,2.3-3.5s-.3,5.7-2.3,3.5Z"/>
          <path d="M1067.5,203.6c-1.4,1.9-4.5-.2-3-2.3s4.1.8,3,2.3Z"/>
          <path d="M1008.3,344.9c4.2,4.3-7.5,12.9-10.3,9.3-3.3-4.2,2.7-8.8,6.4-10s2.8-.5,3.9.6ZM1005.9,348.9c.6-.8,1.6-1.5.5-2.2-2.1-1.4-8.4,3.3-7,5.3s5.6-1.9,6.5-3Z"/>
        </g>
      </g>
    </g>
    <g id="dots">
      <path d="M704.8,707.3c.4.4,1,1.7.9,2.2-.1.8-1.7,2.1-2.6,2-5-.5-.8-6.8,1.7-4.3Z"/>
      <circle cx="696.1" cy="657.9" r="2.2" transform="translate(-92.1 113.8) rotate(-8.8)"/>
      <circle cx="645.6" cy="701.2" r="2.1" transform="translate(-99.3 106.6) rotate(-8.8)"/>
      <path d="M695.2,310.1c1.9-2.9,9.1-1.6,6.7,3.8s-5.8.4-6.1,0-.6-3.6-.5-3.8Z"/>
      <path d="M627.3,650.1c-1.3,1.7-5.3,1.1-5.4-2.1-.1-5.1,8.7-2.2,5.4,2.1Z"/>
      <path d="M524.3,200.7c2.8,3.6-4.3,7-5.9,2.7s4.1-4.9,5.9-2.7Z"/>
      <path d="M721.1,114.2c0-.2,1.7-2.2,2.3-2.3,9.4-2.2,9.5,9.2,3,9.1s-5.9-2.8-5.3-6.8Z"/>
      <path d="M693.2,734.8c-2.7-1.9,1.7-7.4,4.4-4.4,2.8,3.1-1.9,6.2-4.4,4.4Z"/>
      <path d="M671.2,483.6c1.4,2.2-2.4,6.9-5.7,4-4.9-4.2,2.2-9.6,5.7-4Z"/>
      <path d="M678.8,378.8c-4.9,4.2-12.8-5.9-4.2-8.2s6.1,6.6,4.2,8.2Z"/>
      <path d="M1295.5,49.4c.2-.6,1.5-2.1,2.1-2.2,1-.3,3.3.8,3.7,2,2,6.2-7.5,4.5-5.8.3Z"/>
      <ellipse cx="1199" cy="97.2" rx="2.9" ry="2.9"/>
      <ellipse cx="1333.7" cy="162.3" rx="4.6" ry="4.6"/>
      <path d="M1151.4,211.7c2.7-5.2,10.3,1.4,6.1,5.4s-7.8-2.2-6.1-5.4Z"/>
      <path d="M1356,38c-1,4.7-10.7,2.1-8.3-3.2s9.2-1.1,8.3,3.2Z"/>
      <ellipse cx="1281.7" cy="237.5" rx="3.7" ry="3.7"/>
      <path d="M461.4,354.4c2.6.8,1.6,5.3-1.7,3.5s.3-3.9,1.7-3.5Z"/>
      <path d="M505.6,535.1c2.3-1.3,4.8,2.4,1.4,3.5-2.6.8-2.6-2.8-1.4-3.5Z"/>
      <path d="M696.9,559.4c2.3-1.3,4.8,2.4,1.4,3.5s-2.6-2.8-1.4-3.5Z"/>
      <path d="M793.6,655.6c2.3-1.3,4.8,2.4,1.4,3.5-2.6.8-2.6-2.8-1.4-3.5Z"/>
      <path d="M1022.2,648c2.3-1.3,4.8,2.4,1.4,3.5s-2.6-2.8-1.4-3.5Z"/>
      <path d="M1203.2,636.7c2.3-1.3,4.8,2.4,1.4,3.5-2.6.8-2.6-2.8-1.4-3.5Z"/>
      <path d="M1198.3,537.2c2.3-1.3,4.8,2.4,1.4,3.5s-2.6-2.8-1.4-3.5Z"/>
      <path d="M1290.2,520c2.3-1.3,4.8,2.4,1.4,3.5s-2.6-2.8-1.4-3.5Z"/>
      <path d="M1328.3,479.3c0,0,1.1,1.2,1.1,1.5.5,5.7-6.2,4.7-5.6,1s2.2-3.2,4.5-2.5Z"/>
      <path d="M1285.6,284.8c0,0,1.1,1.2,1.1,1.5.5,5.7-6.2,4.7-5.6,1s2.2-3.2,4.5-2.5Z"/>
      <path d="M1292.6,150.8c0,0,1.1,1.2,1.1,1.5.5,5.7-6.2,4.7-5.6,1s2.2-3.2,4.5-2.5Z"/>
      <path d="M1241.8,33.1c0,0,1.1,1.2,1.1,1.5.5,5.7-6.2,4.7-5.6,1s2.2-3.2,4.5-2.5Z"/>
      <path d="M1125.1,40.1c0,0,1.1,1.2,1.1,1.5.5,5.7-6.2,4.7-5.6,1s2.2-3.2,4.5-2.5Z"/>
      <path d="M786.5,360c0,0,1.1,1.2,1.1,1.5.5,5.7-6.2,4.7-5.6,1s2.2-3.2,4.5-2.5Z"/>
      <path d="M740.8,199.5c0,0,1.1,1.2,1.1,1.5.5,5.7-6.2,4.7-5.6,1s2.2-3.2,4.5-2.5Z"/>
      <path d="M619.2,139.2c0,0,1.1,1.2,1.1,1.5.5,5.7-6.2,4.7-5.6,1s2.2-3.2,4.5-2.5Z"/>
      <path d="M787.5,54.6c0,0,1.1,1.2,1.1,1.5.5,5.7-6.2,4.7-5.6,1s2.2-3.2,4.5-2.5Z"/>
      <path d="M280.1,131.7c3,1,1.9,6.1-1.9,4s.3-4.5,1.9-4Z"/>
      <ellipse cx="409.6" cy="89.5" rx="3.7" ry="3.7" transform="translate(182.6 441.9) rotate(-69.5)"/>
      <path d="M455.3,102.3c0,0,1.5-.6,1.8-.5,5.5,1.5,2.3,7.5-1.1,5.6s-2.2-3.2-.8-5Z"/>
      <path d="M312,526.4c1.5,1.7-1.1,4.6-3.1,3.1-1.5-2.1,1.2-5.3,3.1-3.1Z"/>
      <path d="M412.8,382.5c-.2,2.7-4.7,2.7-5.1-.2.6-3,5.4-3.3,5.1.2Z"/>
      <path d="M575,579c1.5,1.7-1.1,4.6-3.1,3.1-1.5-2.1,1.2-5.3,3.1-3.1Z"/>
      <path d="M815.7,618.4c1.5,1.7-1.1,4.6-3.1,3.1-1.5-2.1,1.2-5.3,3.1-3.1Z"/>
      <path d="M1061.5,637.7c1.5,1.7-1.1,4.6-3.1,3.1-1.5-2.1,1.2-5.3,3.1-3.1Z"/>
      <path d="M1160.6,744.9c1.5,1.7-1.1,4.6-3.1,3.1-1.5-2.1,1.2-5.3,3.1-3.1Z"/>
      <path d="M1255.6,715.5c1.5,1.7-1.1,4.6-3.1,3.1-1.5-2.1,1.2-5.3,3.1-3.1Z"/>
      <path d="M1060.6,709.4c0,0,1.1,1.2,1.1,1.5.5,5.7-6.2,4.7-5.6,1s2.2-3.2,4.5-2.5Z"/>
      <path d="M527.6,670c0,0,1.1,1.2,1.1,1.5.5,5.7-6.2,4.7-5.6,1s2.2-3.2,4.5-2.5Z"/>
      <path d="M566.1,463.7c0,0,1.1,1.2,1.1,1.5.5,5.7-6.2,4.7-5.6,1s2.2-3.2,4.5-2.5Z"/>
      <path d="M714.7,17.7c0,0,1.1,1.2,1.1,1.5.5,5.7-6.2,4.7-5.6,1s2.2-3.2,4.5-2.5Z"/>
      <path d="M483.2,50c0,0,1.1,1.2,1.1,1.5.5,5.7-6.2,4.7-5.6,1s2.2-3.2,4.5-2.5Z"/>
      <circle cx="379.3" cy="65.4" r="2"/>
      <circle cx="550.2" cy="94.7" r="2"/>
      <circle cx="805" cy="109.9" r="2"/>
      <circle cx="1038.7" cy="165.5" r="2"/>
      <circle cx="938.5" cy="163.5" r="2"/>
      <circle cx="1237.9" cy="304.1" r="2"/>
      <circle cx="1284.4" cy="396.1" r="2"/>
    </g>
  </g>
  <circle cx="364.2" cy="313.4" r="2.6" transform="translate(-79.9 130.1) rotate(-18.3)"/>
  <circle cx="397.5" cy="277.6" r="2.4" transform="translate(-67 138.8) rotate(-18.3)"/>
  <circle cx="368.2" cy="219.7" r="2.1" transform="translate(-10.6 420.5) rotate(-58.8)"/>
  <circle cx="341.2" cy="170.9" r="1.7"/>
</svg>