<?xml version="1.0" encoding="UTF-8"?>
<svg id="Layer_1" xmlns="http://www.w3.org/2000/svg" xmlns:i="http://ns.adobe.com/AdobeIllustrator/10.0/" version="1.1" viewBox="0 0 623.1 250">
  <!-- Generator: Adobe Illustrator 30.0.0, SVG Export Plug-In . SVG Version: 2.1.1 Build 123)  -->
  <defs>
    <style>
      .st0 {
        fill: #fff;
        stroke: #231f20;
        stroke-miterlimit: 10;
      }

      .st0, .st1 {
        display: none;
      }

      .st2 {
        fill: #f93;
      }

      .st3 {
        fill: #33302e;
      }
    </style>
  </defs>
  <rect class="st0" x="-204.6" y="-142.2" width="906.2" height="533.5"/>
  <path class="st2" d="M130.5,59.2c-3.4,3-8,5.3-10.6,2.5-8-8.8-9.7-19.7-4.1-29.9,5.4-9.8,16.3-14.7,27.6-11.9,3.7.9,6.2.7,9.2-2.2,4.8-4.6,11.7-3.6,15.7,1.5s3.2,11.8-2.5,15.5c-2.6,1.7-3.3,3.3-2.9,6.3,2,17.8-12.3,30.9-30,27.7-3.4-.6-3.9-4.1-2.3-9.5h-.1Z"/>
  <path class="st2" d="M101.6,115s2.4-49.4-51.4-43c-53.8,6.4-80.7,72.9,44,147.6,0,0-126.9-170.4,7.4-104.5h0Z"/>
  <g class="st1">
    <path class="st3" d="M151.7,160.4c3.8,0,5.6-.4,6.9-.6,1.2-.4,1.9-.6,3.6-.6,3.4,0,10.6,6.8,10.6,16.3s-2.3,7.3-6.8,7.3c-7.7,0-7.6-10.4-12.1-10.4s-3.1,4.8-3.1,5.5v27.1c0,10.5,8.1,5.5,8.1,11.6s-1.7,6.6-18.2,6.6-21,.2-21-6.6,5.5-2.8,7.2-6.2c.9-1.9,1.2-7.1,1.3-9.3l.7-19.5c.4-9.3-1.5-9.2-2.7-9.2-4,0-5.9,10.4-13,10.4s-5.5-3.2-5.5-6.3c0-7.5,6.3-17.3,11.4-17.3s1.6.3,3.3.6c1.7.3,4.1.6,7.6.6h21.7Z"/>
    <path class="st3" d="M179.6,195.5c0-8.6-5.5-3.8-5.5-9.2s20.6-8.9,21.4-8.9c3.3,0,3.4.9,3.8,3.9,0,1.1,0,3.1,1.5,3.1s3.4-7,11-7,9.8,4.4,9.8,10.2-5,10.6-10.8,10.6-7.3-5-9.6-5-2,5.9-2,7.5c0,2.6.3,6.3.7,9.7.5,3.9,7.2,1.5,7.2,6.8s-7.8,6-17.5,6-16,.2-16-5.9,4.1-3.7,5-6.8c.7-2.2,1-7.2,1-9.7v-5.3h0Z"/>
    <path class="st3" d="M262.6,214.8c-4.3,11.7-10,23.2-24.3,23.2s-13.8-3.3-13.8-10.6,3.3-8.1,7.8-8.1c8.2,0,5.9,9.3,9.5,9.3s3.4-2.3,3.4-4.3-1.8-5.8-2.8-8l-12.3-25.8c-1.7-3.5-6.7-2.5-6.7-6.5s1.6-6.5,20.2-6.5,11.3.4,11.3,5.4-2,3.1-2,5.2c0,3.3,3.9,9.5,5.4,9.5,2.6,0,4.5-6.1,4.5-8.2,0-4-2.8-3.7-2.8-6.7,0-4.7,8.3-5.2,11.5-5.2s9.4.4,9.4,4.5-5.3,2.9-8.4,8.1c-1.9,3.1-3.3,7-4.6,10.4l-5.2,14.4h0Z"/>
    <path class="st3" d="M304.4,240.1c-16.3,0-22.5-6.2-22.5-11.8s4.8-5.2,4.8-6.5-4.8-3.6-4.8-7.5c0-6.3,7.1-8.1,7.1-9.3s-6-5.1-6-11.6c0-10.7,13.3-15.6,22.2-15.6s10.6,1.7,13.7,1.7c6.7,0,10-4.7,11.4-4.7,2,0,2.9,2.6,2.9,4.3,0,4.9-4.9,8.5-4.9,9.4s.3,1.9.3,2.7c0,11.9-13.8,16-23.5,16s-3-.3-4.6-.3-2.4,1-2.4,2.4c0,2.7,3.9,3.3,5.9,3.3s13-1.5,16.5-1.5c9.2,0,13,5.2,13,10.5,0,7.9-7.6,18.6-29.2,18.6h.1ZM305.3,232.5c2.9,0,9.5-.4,9.5-4.5s-1.8-2.6-3.4-2.6-4.8.5-7.6.5-6.8-.7-7.8-.7-1.1.8-1.1,1.4c0,4.7,6.9,5.9,10.3,5.9h.1ZM305.8,184.1c-3.4,0-4.9,3.3-4.9,6.3s.9,10.7,5.4,10.7,5.3-3.4,5.3-6.9-.8-10.1-5.7-10.1h0Z"/>
    <path class="st3" d="M357.9,240.1c-16.3,0-22.5-6.2-22.5-11.8s4.8-5.2,4.8-6.5-4.8-3.6-4.8-7.5c0-6.3,7.1-8.1,7.1-9.3s-6-5.1-6-11.6c0-10.7,13.3-15.6,22.2-15.6s10.6,1.7,13.7,1.7c6.7,0,10-4.7,11.4-4.7,2,0,2.9,2.6,2.9,4.3,0,4.9-4.9,8.5-4.9,9.4s.3,1.9.3,2.7c0,11.9-13.8,16-23.5,16s-3-.3-4.6-.3-2.4,1-2.4,2.4c0,2.7,3.9,3.3,5.9,3.3s13-1.5,16.5-1.5c9.2,0,13,5.2,13,10.5,0,7.9-7.6,18.6-29.2,18.6h.1ZM358.8,232.5c2.9,0,9.5-.4,9.5-4.5s-1.8-2.6-3.4-2.6-4.8.5-7.6.5-6.8-.7-7.8-.7-1.1.8-1.1,1.4c0,4.7,6.9,5.9,10.3,5.9h.1ZM359.3,184.1c-3.4,0-4.9,3.3-4.9,6.3s.9,10.7,5.4,10.7,5.3-3.4,5.3-6.9-.8-10.1-5.7-10.1h0Z"/>
    <path class="st3" d="M394.6,189.6c-2.6-4.8-7.5-2.1-7.5-6.9s1.1-5.3,17.7-5.3,14.9-.2,14.9,4.5-3.3,3.5-3.3,5.8,3.3,8.6,5.5,8.6,6.1-7.5,6.1-9.3-3-3.1-3-5.6c0-4.4,9.7-4.1,12.3-4.1s9.2,0,9.2,3.9-5.7,2.3-8.3,7.2l-14.5,28.1c-2.9,5.6-5.3,6.8-7.3,6.8-3.4,0-5.6-3.8-7.1-6.4l-14.7-27.4h0Z"/>
    <path class="st3" d="M469.1,201.9c-1,0-2.4-.3-2.4,1.2,0,4.4,5.7,8.1,9.9,8.1,6.6,0,9.9-4,11.7-4s3.4,2.7,3.4,4.4c0,6.8-12.4,11.7-20.4,11.7-15.9,0-24.1-11.5-24.1-22.8s11.5-23.4,24.8-23.4,21.6,11.5,21.6,18.2-2.6,6.6-5.5,6.6h-19.1.1ZM476.8,190.8c0-3.2-1.9-5.6-5.2-5.6s-5.3,3-5.3,5.8,3,2.5,5.3,2.5,5.2.5,5.2-2.6h0Z"/>
  </g>
  <path class="st3" d="M91.7,43.1c0,1.4,0,2.7-.3,4-1.9,11.9-12.2,21-24.7,21s-25-11.2-25-25,11.2-25,25-25,19,6.2,22.9,15c1.3,3.1,2.1,6.5,2.1,10Z"/>
  <path class="st3" d="M107.8,115.1s-2.7-42.1,51.4-43c39.4-.7,73.7,29.2-4.1,76,0,0,59.2-82.1-47.3-33Z"/>
  <g>
    <path class="st3" d="M243.5,70.8c0-9,8.7-20.3,25.6-20.3s11.8,2.4,13.1,2.4,2.4-1.2,4.3-1.2c3,0,9.6,6.7,9.6,14s-1.9,5.9-5.1,5.9c-5.8,0-9.2-9.9-18.3-9.9s-5.6,1.2-5.6,4.4c0,6.9,11.9,5,22,11.7,5.4,3.6,8.1,7.9,8.1,14.4,0,10.2-8.4,21.7-28.6,21.7s-15.6-1.5-20.5-4.2c-4.2-2.3-6.2-11.6-6.2-16s1-4.7,3.7-4.7c6.2,0,5.1,13.8,21.1,13.8s6.7-1,6.7-4.3c0-6.3-11.9-4.7-21.6-12.4-4.8-3.8-8.3-9.1-8.3-15.4Z"/>
    <path class="st3" d="M325,94c0,5.8,2.4,7.2,4.8,7.2s4.3-2,5.8-2,3,2.4,3,4c0,5.7-9.9,10.8-18.7,10.8s-15.6-1.9-15.6-15.7v-17.9c0-1.6,0-2.2-.4-2.4-.4-.3-1.4,0-3.4,0s-3.4,0-3.8-.3c-.6-.6-.4-1.5-.4-3.5s-.3-2.2.8-2.9l19.8-12.6c2-1.2,1.9-1,4.5-1s3.7-.3,3.7,3.7-.2,5.4.3,6.4c.3.7.9.7,3.1.7h6.1c3.7,0,3.7.3,3.7,4.2s-.6,5.3-4,5.3h-6c-3,0-3.2,0-3.2,3.2v13Z"/>
    <path class="st3" d="M360,92.8c-1,0-2.3-.3-2.3,1.2,0,4.4,5.7,8,9.7,8,6.5,0,9.7-3.9,11.6-3.9s3.4,2.7,3.4,4.4c0,6.7-12.3,11.6-20.1,11.6-15.7,0-23.8-11.3-23.8-22.5s11.4-23.1,24.4-23.1,21.3,11.4,21.3,17.9-2.6,6.5-5.4,6.5h-18.9ZM367.6,81.8c0-3.1-1.9-5.6-5.1-5.6s-5.2,3-5.2,5.7,3,2.4,5.2,2.4,5.1.5,5.1-2.6Z"/>
    <path class="st3" d="M406.7,130.4c-16.1,0-22.2-6.1-22.2-11.7s4.8-5.1,4.8-6.4-4.7-3.6-4.7-7.4c0-6.2,7-8,7-9.2s-5.9-5-5.9-11.5c0-10.5,13.1-15.4,21.9-15.4s10.4,1.7,13.5,1.7c6.6,0,9.9-4.6,11.2-4.6,2,0,2.9,2.6,2.9,4.3,0,4.9-4.9,8.4-4.9,9.3s.3,1.8.3,2.7c0,11.7-13.7,15.7-23.2,15.7s-3-.3-4.5-.3-2.3,1-2.3,2.3c0,2.7,3.8,3.2,5.8,3.2s12.8-1.5,16.3-1.5c9,0,12.9,5.1,12.9,10.4,0,7.8-7.5,18.4-28.8,18.4ZM407.6,122.9c2.9,0,9.4-.4,9.4-4.4s-1.7-2.6-3.4-2.6-4.7.5-7.5.5-6.7-.7-7.7-.7-1,.8-1,1.4c0,4.6,6.8,5.8,10.2,5.8ZM408.1,75.2c-3.4,0-4.9,3.2-4.9,6.3s.9,10.5,5.3,10.5,5.2-3.4,5.2-6.8-.8-10-5.7-10Z"/>
    <path class="st3" d="M456.9,92.8c-1,0-2.3-.3-2.3,1.2,0,4.4,5.7,8,9.7,8,6.5,0,9.7-3.9,11.6-3.9s3.4,2.7,3.4,4.4c0,6.7-12.3,11.6-20.1,11.6-15.7,0-23.8-11.3-23.8-22.5s11.4-23.1,24.4-23.1,21.3,11.4,21.3,17.9-2.6,6.5-5.4,6.5h-18.9ZM464.5,81.8c0-3.1-1.9-5.6-5.1-5.6s-5.2,3-5.2,5.7,3,2.4,5.2,2.4,5.1.5,5.1-2.6Z"/>
    <path class="st3" d="M508.4,94c0,5.8,2.4,7.2,4.8,7.2s4.3-2,5.8-2,3,2.4,3,4c0,5.7-9.9,10.8-18.7,10.8s-15.6-1.9-15.6-15.7v-17.9c0-1.6,0-2.2-.4-2.4-.4-.3-1.4,0-3.4,0s-3.4,0-3.8-.3c-.6-.6-.4-1.5-.4-3.5s-.3-2.2.8-2.9l19.8-12.6c2-1.2,1.9-1,4.5-1s3.7-.3,3.7,3.7-.2,5.4.3,6.4c.3.7.9.7,3.1.7h6.1c3.7,0,3.7.3,3.7,4.2s-.6,5.3-4,5.3h-6c-3,0-3.2,0-3.2,3.2v13Z"/>
    <path class="st3" d="M249.5,180.7c0-3.6.2-9.1-.3-12.5-1-7.5-6.7-4.3-6.7-9s3.8-4.7,6.6-4.7,17.9.9,25.1.9,19.2-.9,20.4-.9c3.4,0,7,7.1,7,13.1s-1.4,6-4.7,6c-6,0-2.9-9-19.6-9s-7.6-.4-7.6,12.2,0,3,5.1,3,2.4-8,8.5-8,5.3,9.5,5.3,12.9-.4,14.6-6.4,14.6.2-9.8-9.1-9.8-3.3.7-3.4,9.7c-.3,12.9,8.4,5.7,8.4,12.4s.8,5.8-20.4,5.8-16.2-2-16.2-5.7,4.7-2.6,6.5-7.2c.9-2.4,1.1-8.6,1.1-11.5v-12.1Z"/>
    <path class="st3" d="M300.5,196.2c0-15.6,13.7-24.4,28-24.4s23.9,11.9,23.9,22.7-15.3,23-28.1,23-23.8-7.6-23.8-21.3ZM310.1,166.6c-3.5,0-8.3-1.5-8.3-5.7,0-6.2,9-7.2,13.4-7.2s9.3,1,9.3,5.6-10.1,7.4-14.4,7.4ZM324.7,182.1c-2.9,0-4.4,2.7-4.3,5.2.3,5.5,1.9,18.9,7.9,19.2,3.3.2,4-2.6,4-5.4s-1.7-19.1-7.7-19.1ZM336.7,166.6c-3.5,0-8.3-1.5-8.3-5.7,0-6.2,9-7.2,13.4-7.2s9.3,1,9.3,5.6-10.1,7.4-14.4,7.4Z"/>
    <path class="st3" d="M358.6,189.9c0-8.5-5.4-3.7-5.4-9s20.4-8.8,21.1-8.8c3.3,0,3.4.9,3.7,3.8,0,1,0,3,1.5,3s3.4-6.9,10.9-6.9,9.7,4.3,9.7,10.1-5,10.4-10.7,10.4-7.2-5-9.5-5-2,5.8-2,7.4c0,2.6.3,6.3.7,9.6.5,3.8,7.1,1.5,7.1,6.7s-7.7,5.9-17.2,5.9-15.8.2-15.8-5.8,4-3.7,5-6.7c.7-2.2,1-7.1,1-9.6v-5.2Z"/>
    <path class="st3" d="M421.5,196.3c-1,0-2.3-.3-2.3,1.2,0,4.4,5.7,8,9.7,8,6.5,0,9.7-3.9,11.6-3.9s3.4,2.7,3.4,4.4c0,6.7-12.3,11.6-20.1,11.6-15.7,0-23.8-11.3-23.8-22.5s11.4-23.1,24.4-23.1,21.3,11.4,21.3,17.9-2.6,6.5-5.4,6.5h-18.9ZM429.1,185.3c0-3.1-1.9-5.6-5.1-5.6s-5.2,3-5.2,5.7,3,2.4,5.2,2.4,5.1.5,5.1-2.6Z"/>
  </g>
</svg>

