<?xml version="1.0" encoding="UTF-8"?>
<svg id="Majas_Tryggve" xmlns="http://www.w3.org/2000/svg" version="1.1" viewBox="0 0 488.5 231.8">
  <!-- Generator: Adobe Illustrator 29.4.0, SVG Export Plug-In . SVG Version: 2.1.0 Build 152)  -->
  <defs>
    <style>
      .st0 {
        fill: #fff;
      }

      .st1 {
        fill: #ff9d33;
      }
    </style>
  </defs>
  <path class="st1" d="M123.9,48.1c-3.5,3.1-8.2,5.4-10.8,2.5-8.2-9-9.9-20.1-4.2-30.5,5.5-10,16.7-15,28.2-12.1,1.9.5,3.5.6,5,.3,4.2-10.5,15.7-10.3,21.1-3.4,11.2,14.2.6,19.6,6.2,29.8-11.4-1.6-7.9-9.1-13.8-10.8.8,2,1.3,4.1,1.5,5.7,2,18.2-12.6,31.6-30.6,28.3-3.5-.6-4-4.2-2.3-9.7,0,0,0,0,0,0Z"/>
  <path class="st1" d="M98.6,105.1s2.4-50.5-52.5-43.9c-55,6.5-82.4,74.5,44.9,150.8,0,0-129.6-174,7.6-106.7h0Z"/>
  <path class="st0" d="M88.4,31.6c0,1.4,0,2.8-.3,4.1-1.9,12.2-12.5,21.5-25.2,21.5s-25.5-11.4-25.5-25.5S48.8,6.1,62.9,6.1s19.4,6.3,23.4,15.3c1.3,3.2,2.1,6.6,2.1,10.2h0Z"/>
  <path class="st0" d="M100.7,105.2s-2.8-43,52.5-43.9c40.2-.7,75.3,29.8-4.2,77.6,0,0,60.5-83.8-48.3-33.7Z"/>
  <path class="st0" d="M140.6,211.4h-12.4c-2.2,0-4-1.8-4-4v-35.3c0-2.2-1.8-4-4-4h-6.9c-2.2,0-4-1.8-4-4v-9.2c0-2.2,1.8-4,4-4h42c2.2,0,4,1.8,4,4v9.2c0,2.2-1.8,4-4,4h-6.9c-2.2,0-4,1.8-4,4v35.3c0,2.2-1.8,4-4,4h0Z"/>
  <path class="st0" d="M165.4,166.6h12.9c2.3,0,3.1,2,3,4v1.1h.2c1-1.8,2.4-3.3,4.3-4.5,1.9-1.2,4.1-1.8,6.7-1.8s3.7,0,3.6,2.3l-1.2,12.6c-.1,1.2-1.1,2-2.3,1.9h0c-3.7-.5-6.7.6-8.2,2.1s-2.3,3.3-2.3,5.4v17.7c0,2.4-1,4-3,4h-13.6c-2.1,0-3-1.3-3-4v-36.7c0-2.3.5-4,3-4h0Z"/>
  <path class="st0" d="M216.9,209.6c-3.6-10.2-16.4-38.9-16.4-38.9-1-2.2.8-4.1,3.2-4.1h14.1c1.6,0,3.1,1.1,3.6,2.7l5.9,20.9h.3l5.2-20.8c.4-1.6,1.9-2.8,3.6-2.8h12.8c2.6,0,4.4,2.6,3.4,5,0,0-14.1,41.1-20.1,50-1.4,2.1-6.1,9.9-14.8,10.2-6.7.3-10.3-1.1-13.7-3.7-2-1.5-2.8-2.7-1.6-4.9l3.7-6.2c.7-1.3,2.3-2.2,4.1-1.3,4.1,2.1,9.7,2.2,6.8-6h0Z"/>
  <path class="st0" d="M253.4,188.8c0-2.9.4-5.7,1.3-8.5s2.2-5.3,3.9-7.5c1.7-2.2,3.8-4,6.4-5.4,2.6-1.4,5.5-2,8.9-2s4.7.5,7,1.4c2.3.9,4.2,2.4,5.7,4.3h.3v-.5c0-2.2,1.8-4,4-4h10.5c2.2,0,4,1.8,4,4v36.2c0,4.9-.8,8.9-2.4,12.2-1.6,3.2-3.7,5.8-6.4,7.7-2.6,1.9-5.6,3.2-9,4-3.4.8-6.8,1.1-10.2,1.1s-8.5-.6-12.8-1.7c-2.6-.7-5-1.6-7.2-2.6s-3-3.8-1.6-5.8l4.1-6.2c1.1-1.8,3.5-2.3,5.3-1.3,1.2.6,2.4,1.2,3.7,1.6,2.4.8,4.6,1.1,6.8,1.1s2.8-.2,4-.6c1.3-.4,2.4-.9,3.4-1.6,1-.7,1.7-1.6,2.3-2.6.6-1.1.9-2.3.9-3.6v-2h-.3c-1.1,1.2-2.7,2.4-4.8,3.3-2.1,1-4.6,1.4-7.3,1.4s-6.5-.6-9-1.8-4.7-2.9-6.4-4.9-3-4.5-3.8-7.2c-.8-2.7-1.2-5.6-1.2-8.6h0ZM271.7,188.8c0,2.2.6,4,1.9,5.4s3.1,2.2,5.5,2.2,4.2-.7,5.6-2.2c1.4-1.5,2.1-3.3,2.1-5.4s-.7-3.7-2.1-5.2c-1.4-1.5-3.2-2.2-5.6-2.2s-4.2.7-5.5,2.2c-1.2,1.5-1.9,3.2-1.9,5.2Z"/>
  <path class="st0" d="M310.7,188.8c0-2.9.4-5.7,1.3-8.5s2.2-5.3,3.9-7.5c1.7-2.2,3.8-4,6.4-5.4,2.6-1.4,5.5-2,8.9-2s4.7.5,7,1.4c2.3.9,4.2,2.4,5.7,4.3h.3c0-2.5,2-4.5,4.5-4.5h9.5c2.5,0,4.5,2,4.5,4.5v35.7c0,4.9-.8,8.9-2.4,12.2-1.6,3.2-3.7,5.8-6.4,7.7-2.6,1.9-5.6,3.2-9,4-3.4.8-6.8,1.1-10.2,1.1s-8.5-.6-12.8-1.7c-2.4-.6-4.6-1.4-6.6-2.4-2.5-1.2-3.4-4.3-1.9-6.6l3.5-5.3c1.2-1.9,3.8-2.6,5.8-1.6,1.1.6,2.3,1.1,3.5,1.5,2.4.8,4.6,1.1,6.8,1.1s2.8-.2,4-.6c1.3-.4,2.4-.9,3.4-1.6,1-.7,1.7-1.6,2.3-2.6.6-1.1.9-2.3.9-3.6v-2h-.3c-1.1,1.2-2.7,2.4-4.8,3.3-2.1,1-4.6,1.4-7.3,1.4s-6.5-.6-9-1.8-4.7-2.9-6.4-4.9-3-4.5-3.8-7.2-1.2-5.6-1.2-8.6h0ZM328.9,188.8c0,2.2.6,4,1.9,5.4s3.1,2.2,5.5,2.2,4.2-.7,5.6-2.2c1.4-1.5,2.1-3.3,2.1-5.4s-.7-3.7-2.1-5.2c-1.4-1.5-3.2-2.2-5.6-2.2s-4.2.7-5.5,2.2c-1.2,1.5-1.9,3.2-1.9,5.2Z"/>
  <path class="st0" d="M372.5,166.5h10.6c2.3,0,4.3,1.5,4.9,3.8l5.4,20.4h.3l5.2-20.4c.6-2.2,2.6-3.8,4.9-3.8h9.8c3.5,0,6,3.6,4.7,6.9l-13.4,34.7c-.8,1.9-2.6,3.2-4.7,3.2h-14.5c-2.1,0-4-1.3-4.7-3.2l-13.2-34.7c-1.2-3.3,1.2-6.8,4.7-6.8h0Z"/>
  <path class="st0" d="M467.1,189.7c0,2.4-1.5,3.7-3.8,3.8-5.3.1-18.4,0-24.6,0s-1.7,1.3-1,2.1h0c.5.6,1.1,1.2,1.8,1.6.7.5,1.5.8,2.4,1,.9.2,1.8.3,2.7.3,1.8,0,3.3-.4,4.6-1,2.7-1.4,4-1.5,5.6-.7l8.2,4.1c1.9,1,2,2.8,1.2,3.9-1.6,2.5-3.7,3.7-6.9,5.3-3.8,1.9-8.2,2.8-13.2,2.8s-6.4-.5-9.5-1.5c-3.1-1-5.8-2.5-8.1-4.6-2.4-2-4.2-4.5-5.7-7.5-1.4-3-2.1-6.5-2.1-10.5s.6-7,2-10,3.1-5.5,5.3-7.6c2.2-2.1,4.9-3.7,7.9-4.8,3-1.1,6.3-1.7,9.8-1.7s6.7.6,9.6,1.8c2.9,1.2,5.4,2.9,7.5,5.1,2.1,2.2,3.7,4.8,4.8,7.8s1.6,8.6,1.6,10.2h0ZM448.6,182.9c.9,0,1.6-.9,1.3-1.8-.3-.8-.8-1.5-1.5-2.1-1.2-1-2.7-1.5-4.7-1.5s-3.8.6-5,1.8c-.5.5-1,1.1-1.3,1.6-.5.9.1,2,1.2,2h10,0Z"/>
</svg>