<?xml version="1.0" encoding="UTF-8"?><svg id="Majas_Tryggve" xmlns="http://www.w3.org/2000/svg" viewBox="0 0 488.49 231.82"><defs><style>.cls-1{fill:#182a33;}.cls-2{fill:#ff9d33;}</style></defs><path class="cls-2" d="M123.87,48.09c-3.47,3.06-8.17,5.41-10.83,2.55-8.17-8.99-9.91-20.12-4.19-30.54,5.52-10.01,16.65-15.01,28.19-12.15,1.89.46,3.47.64,4.97.33,4.19-10.47,15.69-10.31,21.08-3.45,11.19,14.24.56,19.62,6.2,29.79-11.35-1.6-7.89-9.12-13.84-10.84.82,2,1.3,4.11,1.51,5.72,2.04,18.18-12.56,31.56-30.64,28.29-3.47-.61-3.98-4.19-2.35-9.7h-.1Z"/><path class="cls-2" d="M98.55,105.08s2.45-50.46-52.5-43.92c-54.95,6.54-82.42,74.46,44.94,150.75,0,0-129.61-174.04,7.56-106.73v-.1Z"/><path class="cls-1" d="M88.44,31.65c0,1.43-.1,2.76-.31,4.09-1.94,12.15-12.46,21.45-25.23,21.45s-25.53-11.44-25.53-25.53S48.81,6.11,62.91,6.11s19.41,6.33,23.39,15.32c1.33,3.17,2.14,6.64,2.14,10.21Z"/><path class="cls-1" d="M100.69,105.18s-2.76-43,52.5-43.92c40.24-.71,75.27,29.82-4.19,77.62,0,0,60.46-83.85-48.31-33.7Z"/><path class="cls-1" d="M140.58,211.37h-12.35c-2.19,0-3.96-1.77-3.96-3.96v-35.26c0-2.19-1.77-3.96-3.96-3.96h-6.89c-2.19,0-3.96-1.77-3.96-3.96v-9.19c0-2.19,1.77-3.96,3.96-3.96h41.99c2.19,0,3.96,1.77,3.96,3.96v9.19c0,2.19-1.77,3.96-3.96,3.96h-6.89c-2.19,0-3.96,1.77-3.96,3.96v35.26c0,2.19-1.77,3.96-3.96,3.96Z"/><path class="cls-1" d="M165.44,166.57h12.85c2.31,0,3.09,2.01,3.03,4.03v1.08h.17c.97-1.82,2.4-3.32,4.3-4.51,1.9-1.19,4.13-1.79,6.69-1.79.65,0,3.68,0,3.58,2.28l-1.16,12.59c-.11,1.16-1.14,2-2.29,1.87h0c-3.66-.52-6.69.61-8.22,2.09-1.53,1.48-2.3,3.29-2.3,5.45v17.69c-.01,2.4-.96,4.03-3.03,4.03h-13.62c-2.13,0-3.01-1.31-3.03-4.03v-36.74c0-2.32.53-4.03,3.03-4.03Z"/><path class="cls-1" d="M216.91,209.59c-3.59-10.23-16.4-38.95-16.4-38.95-.98-2.19.83-4.07,3.21-4.07h14.06c1.65,0,3.1,1.1,3.55,2.69l5.89,20.91h.34l5.18-20.8c.41-1.64,1.88-2.8,3.58-2.8h12.78c2.59,0,4.37,2.6,3.44,5.02,0,0-14.08,41.1-20.12,49.96-1.45,2.13-6.09,9.89-14.8,10.24-6.68.26-10.34-1.12-13.72-3.72-2-1.54-2.78-2.7-1.58-4.93l3.72-6.25c.68-1.29,2.27-2.19,4.1-1.26,4.06,2.05,9.68,2.25,6.78-6.03Z"/><path class="cls-1" d="M253.45,188.8c0-2.9.44-5.74,1.32-8.52.88-2.78,2.17-5.28,3.88-7.5,1.7-2.22,3.83-4,6.39-5.37,2.56-1.36,5.51-2.04,8.86-2.04,2.38,0,4.73.46,7.03,1.36,2.3.91,4.19,2.36,5.66,4.34h.26v-.53c0-2.2,1.78-3.98,3.98-3.98h10.52c2.2,0,3.98,1.78,3.98,3.98v36.22c0,4.88-.8,8.94-2.38,12.18-1.59,3.24-3.7,5.81-6.35,7.71-2.64,1.9-5.64,3.24-8.99,4-3.35.77-6.76,1.15-10.22,1.15-4.26,0-8.52-.55-12.78-1.66-2.6-.68-5-1.55-7.19-2.61s-2.98-3.78-1.64-5.81l4.11-6.22c1.15-1.75,3.45-2.27,5.29-1.26,1.2.65,2.43,1.18,3.7,1.59,2.38.77,4.65,1.15,6.81,1.15,1.42,0,2.77-.18,4.05-.55,1.28-.37,2.4-.91,3.36-1.62.97-.71,1.73-1.59,2.3-2.64.57-1.05.85-2.26.85-3.62v-1.96h-.26c-1.08,1.25-2.68,2.36-4.81,3.32-2.13.97-4.56,1.45-7.28,1.45-3.46,0-6.47-.61-9.03-1.83-2.56-1.22-4.69-2.87-6.39-4.94-1.7-2.07-2.97-4.47-3.79-7.2-.82-2.73-1.24-5.59-1.24-8.6ZM271.68,188.8c0,2.16.62,3.96,1.87,5.41,1.25,1.45,3.07,2.17,5.45,2.17s4.19-.74,5.58-2.21c1.39-1.48,2.09-3.26,2.09-5.37,0-1.99-.7-3.72-2.09-5.2-1.39-1.48-3.25-2.21-5.58-2.21s-4.2.74-5.45,2.21c-1.25,1.48-1.87,3.21-1.87,5.2Z"/><path class="cls-1" d="M310.69,188.8c0-2.9.44-5.74,1.32-8.52.88-2.78,2.17-5.28,3.88-7.5,1.7-2.22,3.83-4,6.39-5.37,2.56-1.36,5.51-2.04,8.86-2.04,2.38,0,4.73.46,7.03,1.36,2.3.91,4.19,2.36,5.66,4.34h.26c0-2.49,2.02-4.51,4.51-4.51h9.46c2.49,0,4.51,2.02,4.51,4.51v35.69c0,4.88-.8,8.94-2.38,12.18-1.59,3.24-3.7,5.81-6.35,7.71-2.64,1.9-5.64,3.24-8.99,4-3.35.77-6.76,1.15-10.22,1.15-4.26,0-8.52-.55-12.78-1.66-2.38-.62-4.59-1.4-6.64-2.35-2.5-1.16-3.38-4.28-1.86-6.59l3.5-5.29c1.25-1.9,3.76-2.63,5.77-1.56,1.13.6,2.3,1.1,3.49,1.48,2.38.77,4.65,1.15,6.81,1.15,1.42,0,2.77-.18,4.05-.55,1.28-.37,2.4-.91,3.36-1.62.97-.71,1.73-1.59,2.3-2.64.57-1.05.85-2.26.85-3.62v-1.96h-.26c-1.08,1.25-2.68,2.36-4.81,3.32-2.13.97-4.56,1.45-7.28,1.45-3.46,0-6.47-.61-9.03-1.83-2.56-1.22-4.69-2.87-6.39-4.94-1.7-2.07-2.97-4.47-3.79-7.2-.82-2.73-1.24-5.59-1.24-8.6ZM328.92,188.8c0,2.16.62,3.96,1.87,5.41,1.25,1.45,3.07,2.17,5.45,2.17s4.19-.74,5.58-2.21c1.39-1.48,2.09-3.26,2.09-5.37,0-1.99-.7-3.72-2.09-5.2-1.39-1.48-3.25-2.21-5.58-2.21s-4.2.74-5.45,2.21c-1.25,1.48-1.87,3.21-1.87,5.2Z"/><path class="cls-1" d="M372.52,166.48h10.63c2.29,0,4.28,1.54,4.87,3.75l5.4,20.44h.34l5.17-20.39c.57-2.23,2.58-3.8,4.88-3.8h9.78c3.54,0,5.97,3.55,4.7,6.85l-13.4,34.73c-.75,1.94-2.62,3.22-4.7,3.22h-14.45c-2.09,0-3.96-1.29-4.71-3.25l-13.21-34.73c-1.25-3.29,1.18-6.82,4.71-6.82Z"/><path class="cls-1" d="M467.06,189.73c.05,2.44-1.55,3.71-3.8,3.76-5.26.12-18.41,0-24.56,0-1.1,0-1.71,1.26-1.04,2.13h0c.48.63,1.08,1.16,1.79,1.62.71.46,1.5.8,2.38,1.02.88.23,1.77.34,2.68.34,1.82,0,3.32-.36,4.56-.98,2.72-1.35,4.04-1.49,5.6-.74l8.16,4.13c1.94,1,1.95,2.82,1.25,3.89-1.65,2.5-3.68,3.68-6.92,5.28-3.78,1.87-8.16,2.81-13.16,2.81-3.24,0-6.39-.51-9.46-1.53-3.07-1.02-5.78-2.54-8.13-4.56-2.36-2.01-4.25-4.53-5.66-7.54-1.42-3.01-2.13-6.5-2.13-10.48,0-3.69.65-7.03,1.96-10.01,1.31-2.98,3.08-5.51,5.32-7.58,2.24-2.07,4.88-3.68,7.92-4.81,3.04-1.14,6.29-1.7,9.75-1.7s6.73.61,9.62,1.83c2.9,1.22,5.38,2.93,7.45,5.11,2.07,2.19,3.68,4.78,4.81,7.79,1.13,3.01,1.56,8.62,1.59,10.21ZM448.63,182.92c.92,0,1.61-.9,1.32-1.77-.28-.82-.77-1.54-1.47-2.15-1.16-1.02-2.74-1.53-4.73-1.53-2.16,0-3.83.6-5.02,1.79-.53.53-.97,1.08-1.3,1.62-.54.9.15,2.04,1.2,2.04h10Z"/></svg>